<mxfile host="app.diagrams.net" modified="2022-06-30T17:07:25.086Z" agent="5.0 (X11; Linux x86_64) AppleWebKit/537.36 (KHTML, like Gecko) Chrome/101.0.4951.41 Safari/537.36" etag="QfPS-6iDqiIn19370pCD" version="20.0.4" type="github">
  <diagram id="CqKCCkXQD8Se-KNbkIMq" name="Page-1">
    <mxGraphModel dx="3341" dy="1841" grid="1" gridSize="10" guides="1" tooltips="1" connect="1" arrows="1" fold="1" page="1" pageScale="1" pageWidth="850" pageHeight="1100" math="0" shadow="0">
      <root>
        <mxCell id="0" />
        <mxCell id="1" parent="0" />
        <mxCell id="_ZaMVCGiZKowR8aK0YJU-36" value="Cassandra" style="label;whiteSpace=wrap;html=1;align=center;verticalAlign=bottom;spacingLeft=0;spacingBottom=4;imageAlign=center;imageVerticalAlign=top;image=img/clipart/Gear_128x128.png;fontSize=16;" vertex="1" parent="1">
          <mxGeometry x="600" y="160" width="120" height="190" as="geometry" />
        </mxCell>
        <mxCell id="_ZaMVCGiZKowR8aK0YJU-3" value="" style="rounded=1;whiteSpace=wrap;html=1;fontSize=16;" vertex="1" parent="1">
          <mxGeometry x="1080" y="370" width="340" height="120" as="geometry" />
        </mxCell>
        <mxCell id="_ZaMVCGiZKowR8aK0YJU-20" value="" style="rounded=1;whiteSpace=wrap;html=1;fontSize=16;" vertex="1" parent="1">
          <mxGeometry x="1080" y="580" width="340" height="120" as="geometry" />
        </mxCell>
        <mxCell id="_ZaMVCGiZKowR8aK0YJU-16" value="" style="group" vertex="1" connectable="0" parent="1">
          <mxGeometry x="1270" y="590" width="130" height="120" as="geometry" />
        </mxCell>
        <mxCell id="_ZaMVCGiZKowR8aK0YJU-52" value="" style="group" vertex="1" connectable="0" parent="_ZaMVCGiZKowR8aK0YJU-16">
          <mxGeometry y="10" width="120" height="80" as="geometry" />
        </mxCell>
        <mxCell id="_ZaMVCGiZKowR8aK0YJU-17" value="Config Path" style="swimlane;fontSize=16;container=0;autosize=0;direction=east;" vertex="1" parent="_ZaMVCGiZKowR8aK0YJU-52">
          <mxGeometry width="120" height="80" as="geometry">
            <mxRectangle x="320" y="830" width="180" height="30" as="alternateBounds" />
          </mxGeometry>
        </mxCell>
        <mxCell id="_ZaMVCGiZKowR8aK0YJU-51" value="" style="sketch=0;pointerEvents=1;shadow=0;dashed=0;html=1;strokeColor=none;fillColor=#434445;aspect=fixed;labelPosition=center;verticalLabelPosition=bottom;verticalAlign=top;align=center;outlineConnect=0;shape=mxgraph.vvd.folder;fontSize=16;autosize=0;direction=east;container=0;" vertex="1" parent="_ZaMVCGiZKowR8aK0YJU-17">
          <mxGeometry x="70" y="30" width="40" height="30" as="geometry" />
        </mxCell>
        <mxCell id="_ZaMVCGiZKowR8aK0YJU-18" value="" style="sketch=0;pointerEvents=1;shadow=0;dashed=0;html=1;strokeColor=none;fillColor=#434445;aspect=fixed;labelPosition=center;verticalLabelPosition=bottom;verticalAlign=top;align=center;outlineConnect=0;shape=mxgraph.vvd.folder;fontSize=16;autosize=0;direction=east;container=0;" vertex="1" parent="_ZaMVCGiZKowR8aK0YJU-52">
          <mxGeometry x="10" y="30" width="40" height="30" as="geometry" />
        </mxCell>
        <mxCell id="_ZaMVCGiZKowR8aK0YJU-37" style="edgeStyle=orthogonalEdgeStyle;rounded=0;orthogonalLoop=1;jettySize=auto;html=1;exitX=0;exitY=0.5;exitDx=0;exitDy=0;entryX=1;entryY=0.5;entryDx=0;entryDy=0;fontSize=16;" edge="1" parent="1" source="_ZaMVCGiZKowR8aK0YJU-26" target="_ZaMVCGiZKowR8aK0YJU-36">
          <mxGeometry relative="1" as="geometry" />
        </mxCell>
        <mxCell id="_ZaMVCGiZKowR8aK0YJU-26" value="Data Lineage&lt;br&gt;Ingestion Service" style="rounded=1;whiteSpace=wrap;html=1;fontSize=16;" vertex="1" parent="1">
          <mxGeometry x="920" y="220" width="140" height="60" as="geometry" />
        </mxCell>
        <mxCell id="_ZaMVCGiZKowR8aK0YJU-31" style="edgeStyle=orthogonalEdgeStyle;rounded=0;orthogonalLoop=1;jettySize=auto;html=1;entryX=1;entryY=0.5;entryDx=0;entryDy=0;fontSize=16;" edge="1" parent="1" source="_ZaMVCGiZKowR8aK0YJU-30" target="_ZaMVCGiZKowR8aK0YJU-26">
          <mxGeometry relative="1" as="geometry" />
        </mxCell>
        <mxCell id="_ZaMVCGiZKowR8aK0YJU-30" value="&lt;blockquote style=&quot;margin: 0px 0px 0px 40px; border: none; padding: 0px; font-size: 20px;&quot;&gt;&lt;/blockquote&gt;" style="rounded=1;whiteSpace=wrap;html=1;fontSize=16;align=left;" vertex="1" parent="1">
          <mxGeometry x="1080" y="210" width="340" height="120" as="geometry" />
        </mxCell>
        <mxCell id="_ZaMVCGiZKowR8aK0YJU-34" value="Node &lt;i&gt;n&lt;/i&gt;" style="shape=cylinder3;whiteSpace=wrap;html=1;boundedLbl=1;backgroundOutline=1;size=15;fontSize=16;flipV=0;" vertex="1" parent="1">
          <mxGeometry x="610" y="180" width="100" height="120" as="geometry" />
        </mxCell>
        <mxCell id="_ZaMVCGiZKowR8aK0YJU-41" value="" style="group" vertex="1" connectable="0" parent="1">
          <mxGeometry x="600" y="600" width="120" height="190" as="geometry" />
        </mxCell>
        <mxCell id="_ZaMVCGiZKowR8aK0YJU-38" value="Postgres" style="label;whiteSpace=wrap;html=1;align=center;verticalAlign=bottom;spacingLeft=0;spacingBottom=4;imageAlign=center;imageVerticalAlign=top;image=img/clipart/Gear_128x128.png;fontSize=16;" vertex="1" parent="_ZaMVCGiZKowR8aK0YJU-41">
          <mxGeometry width="120" height="190" as="geometry" />
        </mxCell>
        <mxCell id="_ZaMVCGiZKowR8aK0YJU-40" value="Node &lt;i&gt;n&lt;/i&gt;" style="shape=cylinder3;whiteSpace=wrap;html=1;boundedLbl=1;backgroundOutline=1;size=15;fontSize=16;flipV=0;" vertex="1" parent="_ZaMVCGiZKowR8aK0YJU-41">
          <mxGeometry x="10" y="20" width="100" height="120" as="geometry" />
        </mxCell>
        <mxCell id="_ZaMVCGiZKowR8aK0YJU-42" value="" style="group" vertex="1" connectable="0" parent="1">
          <mxGeometry x="600" y="370" width="120" height="190" as="geometry" />
        </mxCell>
        <mxCell id="_ZaMVCGiZKowR8aK0YJU-43" value="Oracle" style="label;whiteSpace=wrap;html=1;align=center;verticalAlign=bottom;spacingLeft=0;spacingBottom=4;imageAlign=center;imageVerticalAlign=top;image=img/clipart/Gear_128x128.png;fontSize=16;" vertex="1" parent="_ZaMVCGiZKowR8aK0YJU-42">
          <mxGeometry width="120" height="190" as="geometry" />
        </mxCell>
        <mxCell id="_ZaMVCGiZKowR8aK0YJU-44" value="Node &lt;i&gt;n&lt;/i&gt;" style="shape=cylinder3;whiteSpace=wrap;html=1;boundedLbl=1;backgroundOutline=1;size=15;fontSize=16;flipV=0;" vertex="1" parent="_ZaMVCGiZKowR8aK0YJU-42">
          <mxGeometry x="10" y="20" width="100" height="120" as="geometry" />
        </mxCell>
        <mxCell id="_ZaMVCGiZKowR8aK0YJU-53" value="&lt;font style=&quot;font-size: 20px;&quot;&gt;Workflow Engine&lt;/font&gt;" style="text;html=1;strokeColor=none;fillColor=none;align=left;verticalAlign=middle;whiteSpace=wrap;rounded=0;fontSize=16;" vertex="1" parent="1">
          <mxGeometry x="1085" y="625" width="190" height="30" as="geometry" />
        </mxCell>
        <mxCell id="_ZaMVCGiZKowR8aK0YJU-56" value="" style="group" vertex="1" connectable="0" parent="1">
          <mxGeometry x="1280" y="380" width="130" height="120" as="geometry" />
        </mxCell>
        <mxCell id="_ZaMVCGiZKowR8aK0YJU-57" value="" style="group" vertex="1" connectable="0" parent="_ZaMVCGiZKowR8aK0YJU-56">
          <mxGeometry y="10" width="120" height="80" as="geometry" />
        </mxCell>
        <mxCell id="_ZaMVCGiZKowR8aK0YJU-58" value="Lineage Files" style="swimlane;fontSize=16;container=0;autosize=0;direction=east;" vertex="1" parent="_ZaMVCGiZKowR8aK0YJU-57">
          <mxGeometry width="120" height="80" as="geometry">
            <mxRectangle x="320" y="830" width="180" height="30" as="alternateBounds" />
          </mxGeometry>
        </mxCell>
        <mxCell id="_ZaMVCGiZKowR8aK0YJU-59" value="" style="sketch=0;pointerEvents=1;shadow=0;dashed=0;html=1;strokeColor=none;fillColor=#434445;aspect=fixed;labelPosition=center;verticalLabelPosition=bottom;verticalAlign=top;align=center;outlineConnect=0;shape=mxgraph.vvd.folder;fontSize=16;autosize=0;direction=east;container=0;" vertex="1" parent="_ZaMVCGiZKowR8aK0YJU-58">
          <mxGeometry x="70" y="30" width="40" height="30" as="geometry" />
        </mxCell>
        <mxCell id="_ZaMVCGiZKowR8aK0YJU-60" value="" style="sketch=0;pointerEvents=1;shadow=0;dashed=0;html=1;strokeColor=none;fillColor=#434445;aspect=fixed;labelPosition=center;verticalLabelPosition=bottom;verticalAlign=top;align=center;outlineConnect=0;shape=mxgraph.vvd.folder;fontSize=16;autosize=0;direction=east;container=0;" vertex="1" parent="_ZaMVCGiZKowR8aK0YJU-57">
          <mxGeometry x="10" y="30" width="40" height="30" as="geometry" />
        </mxCell>
        <mxCell id="_ZaMVCGiZKowR8aK0YJU-62" value="&lt;font style=&quot;font-size: 20px;&quot;&gt;Prime Servers&lt;/font&gt;" style="text;html=1;strokeColor=none;fillColor=none;align=left;verticalAlign=middle;whiteSpace=wrap;rounded=0;fontSize=16;" vertex="1" parent="1">
          <mxGeometry x="1090" y="415" width="190" height="30" as="geometry" />
        </mxCell>
        <mxCell id="_ZaMVCGiZKowR8aK0YJU-63" value="&lt;span style=&quot;font-size: 20px;&quot;&gt;Lineage Propagation&lt;/span&gt;" style="text;html=1;strokeColor=none;fillColor=none;align=left;verticalAlign=middle;whiteSpace=wrap;rounded=0;fontSize=16;" vertex="1" parent="1">
          <mxGeometry x="1085" y="255" width="190" height="30" as="geometry" />
        </mxCell>
        <mxCell id="_ZaMVCGiZKowR8aK0YJU-66" style="edgeStyle=orthogonalEdgeStyle;rounded=0;orthogonalLoop=1;jettySize=auto;html=1;exitX=0.25;exitY=0;exitDx=0;exitDy=0;entryX=0.25;entryY=1;entryDx=0;entryDy=0;fontSize=20;endArrow=classic;endFill=1;" edge="1" parent="1" source="_ZaMVCGiZKowR8aK0YJU-64" target="_ZaMVCGiZKowR8aK0YJU-20">
          <mxGeometry relative="1" as="geometry" />
        </mxCell>
        <mxCell id="_ZaMVCGiZKowR8aK0YJU-64" value="&lt;blockquote style=&quot;margin: 0px 0px 0px 40px; border: none; padding: 0px; font-size: 20px;&quot;&gt;&lt;/blockquote&gt;" style="rounded=1;whiteSpace=wrap;html=1;fontSize=16;align=left;" vertex="1" parent="1">
          <mxGeometry x="1080" y="730" width="340" height="120" as="geometry" />
        </mxCell>
        <mxCell id="_ZaMVCGiZKowR8aK0YJU-65" value="&lt;span style=&quot;font-size: 20px;&quot;&gt;Issue Service&lt;/span&gt;" style="text;html=1;strokeColor=none;fillColor=none;align=left;verticalAlign=middle;whiteSpace=wrap;rounded=0;fontSize=16;" vertex="1" parent="1">
          <mxGeometry x="1090" y="775" width="190" height="30" as="geometry" />
        </mxCell>
        <mxCell id="_ZaMVCGiZKowR8aK0YJU-67" value="" style="verticalLabelPosition=bottom;verticalAlign=top;html=1;shape=mxgraph.basic.rect;fillColor2=none;strokeWidth=1;size=20;indent=5;fontSize=20;" vertex="1" parent="1">
          <mxGeometry x="200" y="615" width="110" height="275" as="geometry" />
        </mxCell>
      </root>
    </mxGraphModel>
  </diagram>
</mxfile>
